<svg width="777" height="761" viewBox="0 0 777 761" fill="none" xmlns="http://www.w3.org/2000/svg">
<path d="M364 41.4244C345.153 43.9001 326.596 45.6041 308 49.8873C259.68 61.0167 213.599 84.569 175 115.449C141.024 142.631 111.617 176.685 90.7693 215C73.7414 246.295 60.8082 279.994 53.8079 315C31.7685 425.212 67.6763 541.823 146.015 622C168.071 644.573 194.363 664.127 222 679.306C249.22 694.255 278.607 706.631 309 713.501C349.569 722.67 391.805 725.135 433 719.718C483.727 713.048 533.364 695.039 576 666.667C610.694 643.579 641.296 614.971 665.573 581C749.321 463.81 750.473 301.497 666.709 184C646.884 156.191 623.339 131.171 596 110.627C563.369 86.105 527.152 67.0267 488 55.2801C456.751 45.9044 424.607 41 392 41C382.777 41 373.153 40.222 364 41.4244Z" fill="#02A3FF"/>
<path d="M294 129C305.77 133.999 318.34 136.576 330 142.259C352.693 153.32 370.325 169.325 388 187C397.871 180.047 405.5 170.008 415 162.45C434.544 146.901 459.434 134.136 484 129C446.192 88.1115 379.215 78.5568 330 102.756C317.264 109.019 302.337 117.198 294 129ZM264 170C261.881 177.762 258.359 185.153 256.503 193C251.779 212.97 252.232 232.939 255.75 253C256.946 259.821 259.059 266.463 261.345 273C262.325 275.804 263.345 279.351 265.638 281.397C267.974 283.483 272.049 283.458 275 283.87C281.781 284.815 288.332 286.113 295 287.651C313.134 291.836 328.18 300.752 345 308C345 290.334 346.989 271.998 352.036 255C353.844 248.912 356.093 242.895 358.449 237C359.696 233.879 361.78 230.478 361.586 227C361.39 223.47 358.7 220.588 356.564 218C352.042 212.521 347.382 207.504 342 202.87C320.787 184.605 292.592 170.003 264 170ZM432 308C449.145 300.824 464.643 291.53 483 287.13C489.222 285.639 495.663 284.547 502 283.718C504.959 283.332 509.14 283.455 511.501 281.397C516.697 276.866 518.553 265.419 520.011 259C524.773 238.034 526.519 215.009 520.707 194C519.031 187.942 517.657 174.988 512.301 171.028C510.021 169.342 506.554 170.23 504 170.576C497.471 171.463 491.288 172.62 485 174.67C464.337 181.404 445.797 192.305 430.285 207.576C425.375 212.41 418.202 218.292 415.894 225C414.697 228.482 416.375 231.834 417.72 235C420.087 240.57 422.231 246.247 424.114 252C429.967 269.881 432 289.271 432 308ZM120 338C124.8 335.762 128.054 331.748 132 328.286C138.032 322.996 144.321 317.81 151 313.355C171.723 299.533 194.059 291.197 218 285C215.926 270.906 211.039 257.272 209.286 243C206.535 220.597 209.191 195.434 216 174C202.531 175.741 189.23 183 178 190.344C145.329 211.711 122.837 246.249 117.3 285C115.507 297.547 115.66 310.439 117.184 323C117.8 328.072 119.591 332.865 120 338ZM561 174C569.18 199.147 570.664 226.944 566.561 253C564.818 264.066 559.966 274.935 559 286C584.239 287.153 612.247 302.932 632 317.63C640.26 323.776 647.791 333.706 657 338C659.71 324.025 661.89 310.309 660.911 296C657.932 252.513 634.519 211.837 597 189.003C586.124 182.384 573.783 175.723 561 174ZM301 384V382C285.105 374.57 269.978 361.759 258.09 349C253.64 344.225 249.459 339.129 245.424 334.001C243.645 331.739 241.845 328.634 238.91 327.773C233.422 326.163 223.454 329.272 218 330.627C196.743 335.908 176.057 347.158 160 362.09C155.334 366.428 150.951 371.065 146.924 376C145.307 377.983 143.048 380.274 142.944 383C142.827 386.044 145.489 388.824 147.286 391C151.539 396.151 155.928 400.922 161 405.271C177.349 419.289 195.347 429.157 216 435.279C222.15 437.102 232.476 440.43 238.826 438.681C242.079 437.786 243.946 434.502 245.887 431.999C249.38 427.495 253.033 423.081 257.015 419C270.393 405.286 284.688 394.019 301 384ZM476 382V384C492.879 394.332 507.078 405.915 520.996 420C525.963 425.027 531.951 436.949 539.015 438.678C545.292 440.215 554.901 436.66 561 434.989C581.78 429.296 599.566 419.282 616 405.41C621.157 401.056 625.649 396.22 629.915 391C631.716 388.796 634.407 386.093 634.183 383C633.668 375.892 622.703 367.602 618 363.015C601.564 346.983 580.247 336.005 558 330.765C552.168 329.392 545.122 326.76 539.039 327.603C535.542 328.088 533.592 331.419 531.626 334.001C528.216 338.477 524.606 342.826 520.83 347C508.699 360.413 492.788 374.757 476 382ZM120 428C117.594 446.634 114.462 464.133 117.439 483C125.513 534.168 164.634 581.117 216 593C211.323 570.4 206.944 548.296 209.17 525C209.924 517.11 211.052 508.706 212.899 501C214.499 494.325 217.401 487.86 218 481C192.263 476.151 168.407 465.341 147 450.279C137.775 443.789 130.064 432.693 120 428ZM656 428C635.325 448.618 610.826 465.358 583 474.667C575.372 477.219 567.011 480.202 559 481C560.243 490.221 564.3 498.769 565.725 508C570.218 537.09 568.992 564.57 561 593C573.155 590.908 585.57 584.578 596 578.189C631.662 556.343 655.188 519.491 660.155 478C661.44 467.272 661.072 456.725 660.075 446C659.522 440.05 659.169 433.188 656 428ZM345 459C338.359 461.101 332.379 465.298 326 468.139C315.289 472.909 304.348 476.516 293 479.42C287.207 480.902 280.943 482.168 275 482.833C271.992 483.17 268.173 482.852 265.699 484.938C261.147 488.778 259.645 498.543 257.975 504C251.481 525.222 250.598 550.529 256.445 572C258 577.709 259.391 583.431 261.436 589C262.29 591.326 263.189 594.555 265.418 595.958C267.632 597.35 270.604 596.448 273 596.154C279.392 595.371 285.848 593.579 292 591.659C312.605 585.229 331.655 574.295 347 558.999C351.769 554.246 359.578 547.761 361.393 541C362.306 537.597 360.443 534.056 359.15 531C356.937 525.769 355.022 520.455 353.424 515C348.04 496.611 345 478.197 345 459ZM432 459C432 477.864 429.345 496.876 423.964 515C422.344 520.456 420.15 525.742 417.989 531C416.689 534.164 414.758 537.481 415.746 541C417.636 547.727 425.207 554.237 430.001 558.996C445.412 574.298 464.4 585.081 485 591.656C490.89 593.536 496.937 594.819 503 595.999C505.682 596.522 509.09 597.553 511.606 595.968C513.924 594.509 514.798 591.428 515.655 589C517.636 583.392 519.274 577.759 520.731 572C526.126 550.672 525.274 527.227 519.873 506C518.374 500.11 516.318 488.892 511.362 484.938C509.066 483.107 505.766 483.178 503 482.845C497.331 482.162 491.524 481.454 486 479.986C473.99 476.795 462.373 473.204 451 468.139C444.611 465.293 438.705 460.972 432 459ZM387 580C381.642 587.607 374.121 594.136 367 600.08C345.308 618.188 320.998 629.395 294 637C296.323 641.879 300.777 645.058 305 648.335C314.454 655.672 324.901 661.9 336 666.396C373.081 681.417 414.168 680.207 450 662.247C461.978 656.243 476.124 648.088 484 637C459.974 633.762 434.754 619.555 416 604.789C409.737 599.858 403.639 594.635 398.001 588.999C394.588 585.588 391.702 581.433 387 580Z" fill="white"/>
</svg>
